<svg xmlns="http://www.w3.org/2000/svg" viewBox="0 0 480 480">
  <rect width="480" height="480" fill="#222d70"/>
  <circle cx="50" cy="60" r="10" fill="#fff0b8"/>
  <circle cx="150" cy="35" r="8" fill="#fff0b8"/>
  <circle cx="420" cy="60" r="10" fill="#fff0b8"/>
  <circle cx="450" cy="230" r="9" fill="#fff0b8"/>
  <circle cx="35" cy="240" r="9" fill="#fff0b8"/>
  <circle cx="300" cy="35" r="8" fill="#fff0b8"/>
  <polygon points="400,120 408,140 428,140 412,152 418,172 400,160 382,172 388,152 372,140 392,140" fill="#ffd95a"/>
  <polygon points="70,150 76,166 92,166 80,176 84,192 70,182 56,192 60,176 48,166 64,166" fill="#ffd95a"/>
  <!-- planete -->
  <circle cx="400" cy="470" r="150" fill="#4f8fd0"/>
  <path d="M290 400 Q330 350 380 360 Q400 380 370 400 Q330 420 290 400 Z" fill="#7cc072"/>
  <path d="M420 350 Q460 330 480 350 V400 Q450 400 420 380 Z" fill="#7cc072"/>
  <circle cx="70" cy="430" r="26" fill="#d9d3ee"/>
  <circle cx="78" cy="424" r="8" fill="#b7aedc"/>
  <!-- astronaute -->
  <g transform="translate(240 245) rotate(-14)">
    <rect x="-80" y="-30" width="160" height="120" rx="26" fill="#b9b3c9"/>
    <path d="M-30 80 L-52 165" stroke="#f6f2ec" stroke-width="52" stroke-linecap="round" fill="none"/>
    <path d="M30 80 L62 150" stroke="#f6f2ec" stroke-width="52" stroke-linecap="round" fill="none"/>
    <ellipse cx="-58" cy="180" rx="34" ry="22" fill="#f28a2e"/>
    <ellipse cx="74" cy="164" rx="34" ry="22" fill="#f28a2e"/>
    <path d="M-52 -5 L-118 30 L-128 -25" stroke="#f6f2ec" stroke-width="44" stroke-linecap="round" stroke-linejoin="round" fill="none"/>
    <path d="M52 -5 L118 40 L140 -10" stroke="#f6f2ec" stroke-width="44" stroke-linecap="round" stroke-linejoin="round" fill="none"/>
    <circle cx="-128" cy="-28" r="26" fill="#f28a2e"/>
    <circle cx="140" cy="-14" r="26" fill="#f28a2e"/>
    <rect x="-56" y="-40" width="112" height="130" rx="34" fill="#f6f2ec"/>
    <rect x="-56" y="50" width="112" height="16" fill="#d0cbd8"/>
    <rect x="-30" y="0" width="60" height="36" rx="8" fill="#5fa0d8"/>
    <circle cx="-14" cy="18" r="8" fill="#e2463a"/>
    <circle cx="14" cy="18" r="8" fill="#ffd95a"/>
    <circle cx="0" cy="-100" r="84" fill="#f6f2ec"/>
    <rect x="-64" y="-140" width="128" height="86" rx="38" fill="#2b3a7a"/>
    <path d="M-44 -122 Q-20 -136 -8 -126 Q-30 -118 -44 -100 Z" fill="#7f9ce8"/>
  </g>
</svg>
